# xmcd
# 
# Track frame offsets:
#     150
#     12850
#     36942
#     71095
#     84607
#     95222
#     108130
#     121310
#     134535
#     148845
#     167045
#     178965
#     194982
#     209470
# 
# Disc length: 3024
# 
# Revision: 1
# Processed by: cddbd v1.5.2PL0 Copyright (c) Steve Scherf et al.
# Submitted via: fre:ac v1.0.31
# 
DISCID=dc0bce0e
DTITLE=Roots of Rhythm - Say It Loud
DYEAR=1999
DGENRE=R&B
TTITLE0=James Brown - Say It Loud (I'm Black and I'm Proud) Part 1
TTITLE1=The Isley Brothers - Fight the Power (Parts 1 and 2)
TTITLE2=Harold Melvin and The Blue Notes - Wake Up Everybody
TTITLE3=The O'Jays - Love Train
TTITLE4=Sly and the Family Stone - Everyday People
TTITLE5=Earth, Wind and Fire - Shing Star
TTITLE6=Diana Ross and the Supremes - Love Child
TTITLE7=The Five Stairsteps - Ooh Child
TTITLE8=Billie Holiday - Strange Fruit
TTITLE9=Mahalia Jackson - I'm Going To Live the Life I Sing About In My Song
TTITLE10=Nina Simone - Old Jim Crow
TTITLE11=Aretha Franklin - Young, Gifted and Black
TTITLE12=The Staple Singers - I'll Take You There
TTITLE13=Marvin Gaye - What's Going On
EXTD=
EXTT0=
EXTT1=
EXTT2=
EXTT3=
EXTT4=
EXTT5=
EXTT6=
EXTT7=
EXTT8=
EXTT9=
EXTT10=
EXTT11=
EXTT12=
EXTT13=
PLAYORDER=
